<?xml version="1.0" encoding="UTF-8"?>
<svg id="OBJECTS" xmlns="http://www.w3.org/2000/svg" viewBox="0 0 401.11 345.74">
  <defs>
    <style>
      .cls-1 {
        fill: #a83100;
      }

      .cls-1, .cls-2, .cls-3, .cls-4, .cls-5, .cls-6, .cls-7, .cls-8, .cls-9, .cls-10, .cls-11, .cls-12, .cls-13, .cls-14 {
        stroke-width: 0px;
      }

      .cls-2 {
        fill: #213444;
      }

      .cls-3 {
        fill: #d39337;
      }

      .cls-4 {
        fill: #c1812d;
      }

      .cls-5 {
        fill: #f2a927;
      }

      .cls-6 {
        fill: #fff;
      }

      .cls-7 {
        fill: #323c3e;
      }

      .cls-8 {
        fill: #912600;
      }

      .cls-9 {
        fill: #457a00;
      }

      .cls-10 {
        fill: #1d2323;
      }

      .cls-11 {
        fill: #172933;
      }

      .cls-12 {
        fill: #498800;
      }

      .cls-13 {
        fill: #f2f1f0;
      }

      .cls-14 {
        fill: #fcb72d;
      }
    </style>
  </defs>
  <g>
    <rect class="cls-3" y="156.78" width="401.11" height="14.76"/>
    <rect class="cls-4" y="165.66" width="401.11" height="5.89"/>
    <g>
      <g>
        <rect class="cls-3" x="26.26" y="317" width="68.92" height="8.17"/>
        <rect class="cls-4" x="26.26" y="322.71" width="68.92" height="2.45"/>
        <g>
          <rect class="cls-3" x="34.43" y="171.11" width="51.28" height="11.98"/>
          <rect class="cls-3" x="54.08" y="183.09" width="11.98" height="53.56"/>
          <polygon class="cls-3" points="14.51 345.74 42.11 193.32 54.08 193.32 26.48 345.74 14.51 345.74"/>
          <rect class="cls-3" x="42.11" y="183.09" width="11.98" height="10.23"/>
          <polygon class="cls-3" points="105.5 345.74 77.9 193.32 65.92 193.32 93.52 345.74 105.5 345.74"/>
          <rect class="cls-3" x="65.92" y="183.09" width="11.98" height="10.23"/>
        </g>
        <polygon class="cls-4" points="77.9 193.32 77.9 193.32 77.9 183.09 85.71 183.09 85.71 171.11 34.43 171.11 34.43 183.09 42.11 183.09 42.11 193.32 42.11 193.32 39.23 209.22 49.37 219.36 54.08 193.32 54.08 193.32 54.08 224.08 54.08 236.65 66.06 236.65 66.06 236.05 66.06 194.07 75.34 245.33 89.96 259.96 77.9 193.32"/>
      </g>
      <g>
        <rect class="cls-4" x="307.38" y="317" width="68.92" height="8.17"/>
        <g>
          <rect class="cls-4" x="315.54" y="171.11" width="51.28" height="11.98"/>
          <rect class="cls-4" x="335.19" y="183.09" width="11.98" height="53.56"/>
          <polygon class="cls-4" points="295.62 345.74 323.22 193.32 335.19 193.32 307.59 345.74 295.62 345.74"/>
          <rect class="cls-4" x="323.22" y="183.09" width="11.98" height="10.23"/>
          <polygon class="cls-4" points="386.61 345.74 359.01 193.32 347.03 193.32 374.63 345.74 386.61 345.74"/>
          <rect class="cls-4" x="347.03" y="183.09" width="11.98" height="10.23"/>
        </g>
      </g>
    </g>
  </g>
  <rect class="cls-6" x="170.78" y="153.42" width="58.67" height="3.36" rx="1.66" ry="1.66"/>
  <path class="cls-13" d="m170.78,155.1v.02c0,.92.74,1.66,1.66,1.66h55.35c.92,0,1.66-.74,1.66-1.66v-.02h-58.67Z"/>
  <g>
    <polygon class="cls-6" points="213.61 112.12 186.64 112.12 176.46 156.78 223.78 156.78 213.61 112.12"/>
    <path class="cls-13" d="m200.12,138.8c6.82,0,13.43.32,19.77.91l-6.29-27.6h-26.97l-6.29,27.6c6.34-.59,12.96-.91,19.77-.91Z"/>
    <g>
      <g>
        <rect class="cls-7" x="105.08" width="190.08" height="131.51" rx="7.23" ry="7.23"/>
        <path class="cls-10" d="m292.06,1.3c.82,1.17,1.3,2.6,1.3,4.13v117.04c0,4-3.24,7.23-7.23,7.23H110.51c-1.54,0-2.96-.48-4.13-1.3,1.31,1.87,3.47,3.1,5.93,3.1h175.62c3.99,0,7.23-3.24,7.23-7.23V7.23c0-2.46-1.23-4.62-3.1-5.93Z"/>
        <path class="cls-6" d="m295.16,7.61v-.38c0-3.99-3.24-7.23-7.23-7.23H112.31c-3.99,0-7.23,3.24-7.23,7.23v.38h190.08Z"/>
        <path class="cls-6" d="m105.08,104.71v19.56c0,3.99,3.24,7.23,7.23,7.23h175.62c3.99,0,7.23-3.24,7.23-7.23v-19.56H105.08Z"/>
        <path class="cls-13" d="m293.36,105.02v2.3l-182.85,22.39c-1.54,0-2.96-.48-4.13-1.3,1.31,1.87,3.47,3.1,5.93,3.1h175.62c3.99,0,7.23-3.24,7.23-7.23v-19.56l-1.8.31Z"/>
      </g>
      <path class="cls-13" d="m292.06,1.3c.82,1.17,1.3,2.6,1.3,4.13v2.18h1.8v-.38c0-2.46-1.23-4.62-3.1-5.93Z"/>
    </g>
  </g>
  <g>
    <path class="cls-6" d="m254.24,152.87c-5.06-3.42-11.82-3.42-16.88,0-1.36.92-2.33,1.88-2.33,2.76v.06c0,.6.49,1.09,1.09,1.09h19.35c.6,0,1.09-.49,1.09-1.09v-.06c0-.88-.97-1.85-2.33-2.76Z"/>
    <path class="cls-13" d="m236.13,156.78h19.35c.6,0,1.09-.49,1.09-1.09v-.06c0-.88-.97-1.85-2.33-2.76-1.31-.89-2.74-1.54-4.22-1.96-2.8,1.64-7.33,3.17-14.67,3.81-.2.31-.32.62-.32.92v.06c0,.6.49,1.09,1.09,1.09Z"/>
  </g>
  <g>
    <rect class="cls-6" x="106.38" y="153.42" width="87.35" height="3.36" rx=".47" ry=".47"/>
    <path class="cls-13" d="m106.38,155.39v.93c0,.26.21.47.47.47h86.42c.26,0,.47-.21.47-.47v-.93h-87.35Z"/>
    <g>
      <rect class="cls-13" x="108.21" y="153.03" width="5.36" height=".39"/>
      <rect class="cls-13" x="114.74" y="153.03" width="5.36" height=".39"/>
      <rect class="cls-13" x="121.27" y="153.03" width="5.36" height=".39"/>
      <rect class="cls-13" x="127.8" y="153.03" width="5.36" height=".39"/>
      <rect class="cls-13" x="134.32" y="153.03" width="5.36" height=".39"/>
      <rect class="cls-13" x="140.85" y="153.03" width="5.36" height=".39"/>
      <rect class="cls-13" x="147.38" y="153.03" width="5.36" height=".39"/>
      <rect class="cls-13" x="153.9" y="153.03" width="5.36" height=".39"/>
      <rect class="cls-13" x="160.43" y="153.03" width="5.36" height=".39"/>
      <rect class="cls-13" x="166.96" y="153.03" width="5.36" height=".39"/>
      <rect class="cls-13" x="173.48" y="153.03" width="5.36" height=".39"/>
      <rect class="cls-13" x="180.01" y="153.03" width="5.36" height=".39"/>
      <rect class="cls-13" x="186.54" y="153.03" width="5.36" height=".39"/>
    </g>
  </g>
  <g>
    <path class="cls-6" d="m328.57,148.75h-.65c-2.21,0-4-1.79-4-4v-11.39c0-2.21,1.79-4,4-4h6.78c2.21,0,4,1.79,4,4v5.26c0,5.59-4.54,10.13-10.13,10.13Zm-.65-16.61c-.67,0-1.22.55-1.22,1.22v11.39c0,.67.55,1.22,1.22,1.22h.65c4.05,0,7.35-3.3,7.35-7.35v-5.26c0-.67-.55-1.22-1.22-1.22h-6.78Z"/>
    <path class="cls-13" d="m327.92,148.75h.65c2.86,0,5.45-1.2,7.29-3.12-.52-.85-.96-1.78-1.33-2.75-1.33,1.86-3.5,3.09-5.96,3.09h-.65c-.67,0-1.22-.55-1.22-1.22v-11.39c0-.67.55-1.22,1.22-1.22h4.66c-.05-1.03-.06-1.98-.06-2.78h-4.6c-2.21,0-4,1.79-4,4v11.39c0,2.21,1.79,4,4,4Z"/>
    <path class="cls-6" d="m329.24,127.45h-23.22c-.55,0-1,.45-1,1v24.67c0,2.03,1.64,3.67,3.67,3.67h17.88c2.03,0,3.67-1.64,3.67-3.67v-24.67c0-.55-.45-1-1-1Z"/>
    <path class="cls-13" d="m326.57,152h-17.88c-2.03,0-3.67-1.64-3.67-3.67v4.78c0,2.03,1.64,3.67,3.67,3.67h17.88c2.02,0,3.67-1.64,3.67-3.67v-4.78c0,2.02-1.64,3.67-3.67,3.67Z"/>
    <path class="cls-14" d="m324.33,142.12c0,3.7-3,6.7-6.7,6.7s-6.7-3-6.7-6.7,3-6.7,6.7-6.7,6.7,3,6.7,6.7Z"/>
    <g>
      <path class="cls-6" d="m319.9,146.66s0-1.78-.55-2.22v-3.73c0-2.34-1.71-3.14-1.71-3.14,0,0-1.71.8-1.71,3.14v3.73c-.56.44-.55,2.22-.55,2.22l.82-.54,1.11-.51.07,1.05h.52l.07-1.05,1.11.51.82.54Z"/>
      <path class="cls-14" d="m318.4,140.62c0,.42-.34.77-.77.77s-.77-.34-.77-.77.34-.77.77-.77.77.34.77.77Z"/>
    </g>
  </g>
  <g>
    <rect class="cls-2" x="27.68" y="106.41" width="11.62" height="50.38"/>
    <rect class="cls-11" x="35.56" y="106.41" width="3.75" height="50.38"/>
  </g>
  <g>
    <rect class="cls-14" x="16.06" y="102.5" width="11.62" height="54.29"/>
    <rect class="cls-5" x="24.45" y="102.5" width="3.23" height="54.29"/>
    <rect class="cls-6" x="18.03" y="150.72" width="7.68" height="1.87"/>
  </g>
  <g>
    <path class="cls-6" d="m16.06,154.78v-19.82c0-.55-.44-.99-.99-.99h-.02c-.55,0-.99.44-.99.99v19.82h-5.84c-.55,0-.99.44-.99.99v.02c0,.55.44.99.99.99h7.84v-2h0Z"/>
    <path class="cls-13" d="m16.06,154.78v-19.82c0-.54-.44-.98-.98-.99,0,.04.02.07.02.11v19.82h0v2h-7.84s0,0,0,0c.06.49.46.88.97.88h7.84v-2h0Z"/>
  </g>
  <g>
    <path class="cls-6" d="m39.31,154.78v-19.82c0-.55.44-.99.99-.99h.02c.55,0,.99.44.99.99v19.82h5.84c.55,0,.99.44.99.99v.02c0,.55-.44.99-.99.99h-7.84v-2h0Z"/>
    <path class="cls-13" d="m39.31,154.78v-19.82c0-.54.44-.98.98-.99,0,.04-.02.07-.02.11v19.82h0v2h7.84s0,0,0,0c-.06.49-.46.88-.97.88h-7.84v-2h0Z"/>
  </g>
  <g>
    <circle class="cls-12" cx="70.31" cy="134.95" r="11.21" transform="translate(-74.83 89.24) rotate(-45)"/>
    <path class="cls-9" d="m68.57,145.84c.57.09,1.14.15,1.73.15,6.16,0,11.16-4.97,11.21-11.13-.05-6.15-5.05-11.13-11.21-11.13-.42,0-.83.03-1.24.07,5.12,1.04,8.99,5.54,8.99,10.97s-4.11,10.23-9.48,11.07Z"/>
    <path class="cls-12" d="m69.42,121.77c0,3.06-2.48,5.54-5.54,5.54s-5.54-2.48-5.54-5.54,2.48-5.54,5.54-5.54,5.54,2.48,5.54,5.54Z"/>
    <g>
      <polygon class="cls-1" points="83.18 136.25 57.43 136.25 60.64 156.78 79.97 156.78 83.18 136.25"/>
      <rect class="cls-1" x="56.06" y="133.24" width="28.5" height="3.07" rx=".82" ry=".82"/>
      <path class="cls-8" d="m78.22,136.25h-20.79l.19,1.53h10.63c5.19,0,9.21,4.55,8.57,9.71l-1.8,9.3h4.96l3.21-20.54h-4.96Z"/>
    </g>
  </g>
</svg>