<?xml version="1.0" encoding="UTF-8"?>
<svg id="OBJECTS" xmlns="http://www.w3.org/2000/svg" viewBox="0 0 500 500.18">
  <defs>
    <style>
      .cls-1 {
        fill: #c76356;
      }

      .cls-1, .cls-2, .cls-3, .cls-4, .cls-5, .cls-6, .cls-7, .cls-8, .cls-9, .cls-10, .cls-11, .cls-12, .cls-13, .cls-14, .cls-15, .cls-16, .cls-17, .cls-18, .cls-19, .cls-20 {
        stroke-width: 0px;
      }

      .cls-2 {
        fill: #9e80c8;
      }

      .cls-3 {
        fill: #fee8ee;
      }

      .cls-4 {
        fill: #ea517e;
      }

      .cls-21, .cls-22 {
        stroke: #fee8ee;
        stroke-width: .75px;
      }

      .cls-21, .cls-22, .cls-23, .cls-24, .cls-25, .cls-26, .cls-27, .cls-28 {
        fill: none;
      }

      .cls-21, .cls-23, .cls-24, .cls-25, .cls-26, .cls-27, .cls-28 {
        stroke-miterlimit: 10;
      }

      .cls-22 {
        stroke-linejoin: round;
      }

      .cls-23 {
        stroke: #633b62;
      }

      .cls-23, .cls-24, .cls-25, .cls-26, .cls-27, .cls-28 {
        stroke-width: .5px;
      }

      .cls-5 {
        fill: #72494c;
      }

      .cls-6 {
        fill: #4f4972;
      }

      .cls-7 {
        fill: #cc3668;
      }

      .cls-8 {
        fill: #774473;
      }

      .cls-24 {
        stroke: #6e67b2;
      }

      .cls-25 {
        stroke: #4f4972;
      }

      .cls-26 {
        stroke: #8585c1;
      }

      .cls-9 {
        fill: #5e5582;
      }

      .cls-27 {
        stroke: #aa4652;
      }

      .cls-28 {
        stroke: #49446b;
      }

      .cls-10 {
        fill: #d4cfe2;
      }

      .cls-11 {
        fill: #e6ecff;
      }

      .cls-12 {
        fill: #ea5180;
      }

      .cls-13 {
        fill: #91548a;
      }

      .cls-14 {
        fill: #887bca;
      }

      .cls-15 {
        fill: #f5d8cc;
      }

      .cls-16 {
        fill: #60395f;
      }

      .cls-17 {
        fill: #e27b7e;
      }

      .cls-18 {
        fill: #ada3e4;
      }

      .cls-19 {
        fill: #aa534d;
      }

      .cls-20 {
        fill: #e5e0ef;
      }
    </style>
  </defs>
  <path class="cls-11" d="m338.07,487.84c21.93,12.16-45.77,12.16-102.23,12.16s-93.84,0-102.23-12.16c-3.81-5.53,45.77-12.16,102.23-12.16s96.35,8.91,102.23,12.16Z"/>
  <g>
    <path class="cls-16" d="m138.31,308.94s-12.27,54.83-6.64,72.54c0,0,40.04,9.11,85.76-19.91l-21.69-74.7s-31.96,19.7-57.43,22.06Z"/>
    <g>
      <g>
        <g>
          <path class="cls-12" d="m212.38,447.61s2.02,18.73,2.02,22.78,3.04,7.84,6.83,8.6c3.8.76,12.91,2.53,10.38,7.59-2.53,5.06-5.71,9.36-5.71,9.36,0,0-21.37-.48-26.68-3.03s-2.28-14.18-6.83-21.14c-4.55-6.96-19.49-18.6-5.06-26.19,14.42-7.59,19.49-12.15,25.05,2.02Z"/>
          <path class="cls-3" d="m202.51,456.72c0,2.66-2.04,4.81-4.56,4.81s-4.55-2.15-4.55-4.81,2.04-4.81,4.55-4.81,4.56,2.15,4.56,4.81Z"/>
          <path class="cls-21" d="m207.31,464.31c2.28,1.01,5.31,1.77,7.59.76"/>
          <path class="cls-21" d="m207.57,472.92c3.04,1.01,6.83,1.52,9.36-1.01"/>
          <path class="cls-22" d="m212.4,463.01c-.51-2.02-4.05-6.33-3.29-9.36,2.02-6.58,3.04,7.59,3.29,9.36.76-1.52,6.58-14.42,8.35-9.36.76,2.78-6.58,8.35-8.35,9.36"/>
          <path class="cls-3" d="m229.35,490.67c-3.08-.95-7.94-.85-10.15-1.05-4.05-.51-10.88,0-14.42-2.53-3.04-2.28-2.02-6.83-2.78-10.38-1.01-4.81-3.29-8.86-6.83-12.15-3.54-3.54-6.83-6.33-9.36-10.38-1.23-1.64-2.14-3.27-3.25-4.78-5.25,7.29,5.98,16.5,9.83,22.37,4.56,6.96,1.52,18.6,6.83,21.14s26.68,3.03,26.68,3.03c0,0,1.62-2.2,3.46-5.28Z"/>
        </g>
        <path class="cls-14" d="m207.05,306.6s52.39,44.85,54.92,48.56c2.53,3.71-6.97,19.17-20.75,42.85-14.42,24.79-27.08,51.88-27.08,51.88,0,0-15.94,2.53-14.93-12.65l31.72-75.92-41.52-35.68s1.94-22.9,17.64-19.04Z"/>
        <path class="cls-24" d="m190.87,316.27c6.07,2.53,10.88,8.35,15.18,12.65,7.09,7.34,14.93,12.91,22.52,19.49,2.53,2.28,11.39,9.11,11.89,12.4.51,3.04-5.31,7.59-6.83,9.62-7.84,11.13-13.16,26.32-17.71,38.97-4.05,11.39-6.33,24.04-13.92,33.91-.25.25-.25.51-.51.76"/>
      </g>
      <g>
        <g>
          <path class="cls-12" d="m271.89,466.88s10.12,8.35,15.69,10.88c5.57,2.53,23.53,2.28,28.6,4.55,5.06,2.28,3.54,12.4,2.02,15.18s-54.1,4.3-61.59,0c0,0-6.93-8.1,0-29.35,0,0,7.34-7.35,15.28-1.27Z"/>
          <path class="cls-3" d="m269.11,480.67c0,2.59-2.21,4.68-4.93,4.68s-4.93-2.1-4.93-4.68,2.21-4.68,4.93-4.68,4.93,2.1,4.93,4.68Z"/>
          <path class="cls-22" d="m277.66,478.74c1.01-1.77,4.55-3.29,7.59-3.04"/>
          <path class="cls-22" d="m284.24,483.8c2.28-2.28,5.06-5.31,8.35-5.31"/>
          <path class="cls-3" d="m254.87,494.03c.83,2.38,1.75,3.47,1.75,3.47,7.49,4.3,60.07,2.78,61.59,0,.34-.62.67-1.61.94-2.78-4.53-.72-9.45-.84-11.61-1.05-9.62-.51-19.49,0-29.1,0-6.85,0-15.92,1.25-23.56.36Z"/>
        </g>
        <path class="cls-18" d="m137.13,297.8s8.94,27.67,15.86,35.77c6.92,8.1,61.07,59.55,61.07,59.55l39.56,75.5s12.15,9.11,21.26,0l-31.46-85.11-50.02-59.05s7.68-7.25,8.35-8.6c.67-1.35,5.31-9.26,5.31-9.26l-15.14-21.93s-53.77,8.08-54.78,13.14Z"/>
        <path class="cls-26" d="m170.37,289.45c4.3.25,13.92,13.92,16.7,18.22,3.54,5.06,5.06,10.88.25,15.94"/>
        <path class="cls-26" d="m178.47,286.92c3.29,1.52,6.58,5.06,9.11,7.84,4.3,4.55,3.8,6.07.76,10.63"/>
        <path class="cls-26" d="m142.53,295.52c8.1,16.2,11.39,33.66,25.31,46.06,14.68,13.41,32.14,24.04,46.56,38.21,2.78,3.04,6.33,5.82,6.33,10.12,2.28-.25,3.29.76,2.28,2.78"/>
        <path class="cls-26" d="m222.5,392.7c2.28,5.82,4.3,11.89,6.07,17.71,3.04,9.62,8.35,18.22,13.16,27.08,6.58,12.4,12.51,22.02,19.35,34.42"/>
        <path class="cls-26" d="m153.16,292.99c2.28,2.28,4.81,8.1,5.57,11.39,1.01,4.81-3.8,6.83-6.58,10.63"/>
        <path class="cls-22" d="m280.08,475.38c-2.53-.51-8.1-2.28-8.86-5.06-1.52-6.58,7.59,3.04,8.86,5.06-.25-1.52.51-14.17,3.8-9.36,1.77,2.78-2.78,7.84-3.8,9.36"/>
      </g>
    </g>
    <g>
      <g>
        <path class="cls-17" d="m180.42,211.96s8.34,4.69,6.48,21.56.87,40.59-2.18,41.8c-3.05,1.22-16.21,5.64-17.56-8.04-1.35-13.69-8.08-70.14,13.25-55.33Z"/>
        <path class="cls-6" d="m174.46,206.63s10.41,1.75,11.93,8.67c1.52,6.92,7,27.94,7,27.94,0,0-10.71,8.84-29.27,7.32,0,0-8.68-40.79,10.34-43.93Z"/>
        <path class="cls-15" d="m197.04,249.28s-2.7-2.19-10.29,4.05c-7.59,6.24-18.99,11.85-17.64,17.4,1.35,5.55,6.28,10.25,15.44,4.53,11.32-7.06,20.76-25.47,12.5-25.98Z"/>
      </g>
      <g>
        <path class="cls-9" d="m145.32,198.27s-25.05,2.1-33.15,5.44c-8.1,3.34-5.57,45.68,3.54,60.19,9.11,14.51,18.73,34.58,18.73,34.58,0,0,36.69,21.09,58.96-12.06,0,0-9.62-13.92-17.46-19.49,0,0-.25-5.31,0-8.86l.25-3.54s13.16-26.07,6.58-38.97c-6.58-12.91-26.67-16.88-37.45-17.29Z"/>
        <path class="cls-2" d="m125.59,224.74s11.71,2.19,20.99,0l1.35,15.19s-7.59,5.57-10.29,6.24c-2.7.67-13.27-5.17-13.27-5.17l1.23-16.26Z"/>
        <path class="cls-25" d="m147.34,258.83c6.83-1.27,14.17-4.81,21.51-3.29"/>
        <path class="cls-25" d="m155.69,262.88c5.06,0,11.13-1.52,15.94.51"/>
      </g>
    </g>
    <g>
      <g>
        <polygon class="cls-7" points="213.44 204.44 206.01 176.99 183.89 226.94 188.94 251.68 213.44 204.44"/>
        <polygon class="cls-10" points="196.43 193.04 203.39 176.99 205.52 178.08 211.44 202.44 196.43 193.04"/>
        <path class="cls-20" d="m175.93,184.56l1.84-2.02s9.68,5.82,16.76,8.22c7.09,2.4,14.69,7.09,16.32,10.12,1.63,3.04,0,5.75,0,5.75l-34.92-22.08Z"/>
        <polygon class="cls-4" points="188.94 251.68 154.34 233.21 174.73 183.1 213.44 204.44 188.94 251.68"/>
      </g>
      <path class="cls-15" d="m207.48,235.55s1.35-4.39,0-7.09c-1.35-2.7-7.76-7.09-7.76-7.09,0,0-10.63,1.69-10.8,2.36-.17.67.51,4.55,4.47,3.88l3.96-.67,3.54,2.53s-5.9,0-8.27,1.01c-2.36,1.01-3.59,2.87-3.73,3.88-.15,1.01.48,1.01,0,2.36-.48,1.35-1.76,3.21-.02,4.39,1.73,1.18,2.58,4.39,2.58,4.39,0,0-2.19,8.27,1.18,9.28,3.37,1.01,9.11,3.88,14.85-19.23Z"/>
      <path class="cls-27" d="m189.09,236.05c3.8-1.52,7.09-2.02,11.13-2.02"/>
      <path class="cls-27" d="m188.84,241.62c3.54-2.53,7.84-3.96,11.89-3.2"/>
      <path class="cls-27" d="m191.37,245.17c2.28-2.02,5.82-1.27,8.6-1.77"/>
      <path class="cls-17" d="m191.46,245.5s-1.18,1.52.76,1.94c1.94.42,9.25,1.18,11.46,0,0,0-2.43,5.35-4.66,6.89-2.24,1.54-6.79,1.14-8.01-1.57s.46-7.26.46-7.26Z"/>
    </g>
    <g>
      <path class="cls-17" d="m134.43,172.62s.51,21.43,0,26.66c0,0,11.14,9.95,21.76,0v-14.68s-20.41-24.46-21.76-11.98Z"/>
      <path class="cls-15" d="m178.03,157.01s.76,25.05-6.58,30.62c-7.34,5.57-25.31,5.57-32.9-3.54-7.59-9.11-6.58-16.95-6.58-16.95,0,0-4.05-30.11,15.18-33.66,19.23-3.54,32.09,5.39,30.87,23.53Z"/>
      <path class="cls-1" d="m148.17,143.34s-.2,21.26-16.55,20.24c0,0-.43,8.47,2.63,14.04.18.33.38.66.59.97,3.71,5.49-9.19-5.31-11.22-17.63-2.02-12.31-5.57-28.51,6.83-30.53,0,0-4.34-14.17,4.41-15.44l1.41,12.15s2.28-8.1,14.93-7.34c12.65.76,21.92,0,26.9-4.81,0,0,2.7,8.1-4.89,12.4,0,0,20.5,14.42,15.44,28.85-5.06,14.42-10.55,12.65-10.55,12.65,0,0,1.44-19.49-29.94-25.56Z"/>
      <path class="cls-17" d="m162.08,162.08s-4.3,14.16-1.27,14.92c3.04.76,8.35-8.09,1.27-14.92Z"/>
      <path class="cls-19" d="m149.57,154.1c.08-.16.18-.31.27-.46.1-.16.21-.32.32-.48.06-.09.13-.18.2-.27.09-.12-.01.01.02-.02.05-.06.1-.12.15-.18.38-.47.8-.9,1.26-1.29.05-.05.11-.09.16-.13,0,0,.1-.07.04-.03-.07.05.05-.04.07-.05.14-.1.28-.2.42-.29.13-.08.27-.17.41-.24.07-.03.13-.07.2-.1.04-.02.26-.12.16-.08.79-.33,1.42-.41,2.26-.31.4.05.75-.38.75-.75,0-.44-.35-.7-.75-.75-2.9-.34-5.34,1.77-6.84,4.04-.14.21-.27.42-.39.64-.45.85.84,1.61,1.3.76h0Z"/>
      <path class="cls-19" d="m170.05,154.37c.2-.12.4-.23.61-.33.11-.05.21-.1.32-.15.04-.02.09-.04.13-.06.12-.05-.15.06.05-.02.27-.1.53-.2.81-.28.14-.04.28-.07.42-.1.08-.02.15-.03.23-.04.09-.01.08-.01-.03,0,.04,0,.08,0,.12-.01.13-.01.27-.02.4-.02.08,0,.15,0,.23,0,.05,0,.29.05.08,0,.15.03.29.07.43.11.16.05-.11-.06.03,0,.07.03.13.07.2.11.03.02.23.17.08.05.06.05.12.1.18.16.02.02.19.22.09.09.05.07.1.15.15.22.21.34.67.48,1.03.27s.48-.68.27-1.03c-1.35-2.19-4.1-1.55-6.02-.58-.19.1-.39.2-.57.32-.34.21-.48.67-.27,1.03s.68.48,1.03.27h0Z"/>
      <path class="cls-5" d="m156.89,160.51c0,2.26-.91,4.09-2.02,4.09s-2.02-1.83-2.02-4.09.91-4.09,2.02-4.09,2.02,1.83,2.02,4.09Z"/>
      <path class="cls-5" d="m172.42,163.71c-.46,2.21-1.72,3.82-2.82,3.59-1.09-.23-1.61-2.21-1.15-4.42s1.72-3.82,2.82-3.59c1.09.23,1.61,2.21,1.15,4.42Z"/>
      <path class="cls-17" d="m135.09,163.33s-2.19-13.1-9.45-10.18c-7.25,2.92-2.53,27.22,9.45,22.16v-11.98Z"/>
      <path class="cls-27" d="m123.37,157.77c4.3,0,8.1,2.28,11.13,5.57"/>
      <path class="cls-27" d="m127.67,159.54c-1.77,1.01-2.53,3.29-2.28,5.31"/>
    </g>
    <g>
      <path class="cls-16" d="m191.79,340.99s-15.44,4.39-18.52,2.36l-3.08-2.02s5.94-40.91,13.69-44.41c7.76-3.5,9.5,1.27,9.5,1.27l-1.6,42.81Z"/>
      <path class="cls-8" d="m184.88,293.92s4.55-5.61,5.99-10.99c0,0,1.23-3.35,4.2,2.38,2.97,5.74,2.13,13.83-1.67,16.87s-35.51,10.46-55.08,6.75c0,0-8.94-11.34-6.07-13.31s26.15,4.87,52.64-1.71Z"/>
      <path class="cls-13" d="m193.4,302.19s15.94,49.6,14.42,52.64c-1.52,3.04-14.71,6.41-18.41,5.4-3.69-1.01-7.2-62.04-7.2-62.04,0,0,9.08,1.1,11.19,4Z"/>
      <path class="cls-13" d="m183.89,293.08c-3.49,1.86-1.49,6.07,0,9.78,1.49,3.71,6.89,6.73,11.61,2.22,4.72-4.5-3.68-16.24-11.61-12.01Z"/>
      <path class="cls-23" d="m181.8,299.76s1.66,7.14,5.61,7.22c3.95.08,6.78-.82,6.78-.82"/>
    </g>
    <g>
      <path class="cls-15" d="m114.3,205.52s10.8,1.01,11.3,14.51c.51,13.5-4.68,48.26-4.68,48.26,0,0,8.06-1.36,15.65,2.02s28.01,9.95,30.2,12.15,14.85,24.8,14.85,24.8c0,0,.5,9.62-.68,14.17-1.18,4.56-2.36,8.1-4.21,7.59-1.86-.51-2.36-.67-1.69-3.21.67-2.53,2.36-8.27,2.36-8.27,0,0-2.36,3.71-3.88,4.89-1.52,1.18-5.06,1.18-6.58.34-1.52-.84-3.04-1.18-4.55-1.01s-4.72-6.07-5.57-8.27.17-3.04,1.52-2.87c1.35.17,2.19,1.18,2.19,1.18,0,0,1.68-4.07,1.35-5.74l-.33-1.66s-3.72-7.61-1.86-9.64c0,0-4.72-4.39-17.04-4.39s-34.08.84-37.28-7.09c0,0-13.5-76.76,8.94-77.77Z"/>
      <path class="cls-9" d="m113.38,203.26s-7.62.58-10.16,9.86c-2.53,9.28-6.41,32.05-6.41,32.05,0,0,3.04,11,28.01,6.51,0,0,4.22-33,1.01-41.1s-12.45-7.32-12.45-7.32Z"/>
      <path class="cls-28" d="m126.93,217.39s.67,16.25-2.11,34.29"/>
      <path class="cls-27" d="m163.03,321.84c2.28-2.53,2.78-5.82,4.05-8.86"/>
      <path class="cls-27" d="m167.76,323.08c2.53-3.04,5.14-6.05,6.4-9.85"/>
    </g>
  </g>
</svg>